<?xml version="1.0" encoding="UTF-8" standalone="no"?>
<!DOCTYPE svg PUBLIC "-//W3C//DTD SVG 1.1//EN" "http://www.w3.org/Graphics/SVG/1.1/DTD/svg11.dtd">
<svg width="100%" height="100%" viewBox="0 0 180 36" version="1.1" xmlns="http://www.w3.org/2000/svg" xmlns:xlink="http://www.w3.org/1999/xlink" xml:space="preserve" style="fill-rule:evenodd;clip-rule:evenodd;stroke-linejoin:round;stroke-miterlimit:1.41421;">
    <g id="logo" transform="matrix(1,0,0,1,-10,0)">
        <g transform="matrix(0.96974,0,0,0.96974,10,0)">
            <path d="M0,0L0,37.123L14.849,22.274L29.699,37.123L29.699,0" style="fill:rgb(41,39,74);fill-rule:nonzero;"/>
            <path d="M7.425,14.849L14.849,22.274L22.274,14.849L7.425,14.849Z" style="fill:rgb(255,192,0);fill-rule:nonzero;"/>
        </g>
        <g transform="matrix(0.0637499,1.58889e-33,-2.26297e-33,0.0648749,61.2903,-5.84117)">
            <g>
                <g>
                    <path d="M-190.355,453.379C-190.355,456.66 -187.73,459.613 -184.121,459.613L-153.935,459.613C-150.654,459.613 -147.701,456.66 -147.701,453.379L-147.701,376.274L-106.687,376.274C-66.658,376.274 -33.519,343.135 -33.519,302.45C-33.519,262.749 -66.658,229.938 -107.016,229.938L-184.121,229.938C-187.73,229.938 -190.355,232.891 -190.355,236.172L-190.355,453.379ZM-147.701,336.245L-147.701,270.295L-109.64,270.295C-91.266,270.295 -75.845,284.076 -75.845,302.121C-75.845,321.48 -91.266,336.245 -109.64,336.245L-147.701,336.245Z" style="fill:rgb(81,73,128);fill-rule:nonzero;"/>
                    <path d="M18.65,453.379C18.65,456.66 21.275,459.613 24.884,459.613L158.423,459.613C162.033,459.613 164.658,456.66 164.658,453.379L164.658,426.474C164.658,423.193 162.033,420.24 158.423,420.24L61.304,420.24L61.304,362.821L142.346,362.821C145.627,362.821 148.58,360.196 148.58,356.587L148.58,329.354C148.58,326.073 145.627,323.12 142.346,323.12L61.304,323.12L61.304,269.311L158.423,269.311C162.033,269.311 164.658,266.358 164.658,263.077L164.658,236.172C164.658,232.891 162.033,229.938 158.423,229.938L24.884,229.938C21.275,229.938 18.65,232.891 18.65,236.172L18.65,453.379Z" style="fill:rgb(81,73,128);fill-rule:nonzero;"/>
                    <path d="M226.342,453.379C226.342,456.66 229.295,459.613 232.576,459.613L262.434,459.613C266.043,459.613 268.668,456.66 268.668,453.379L268.668,312.293L268.996,312.293L406.145,462.894L414.019,462.894C417.3,462.894 420.253,460.269 420.253,456.988L420.253,236.172C420.253,232.891 417.3,229.938 414.019,229.938L383.833,229.938C380.224,229.938 377.599,232.891 377.599,236.172L377.599,371.68L377.271,371.68L240.778,226.657L232.576,226.657C229.295,226.657 226.342,229.282 226.342,232.563L226.342,453.379Z" style="fill:rgb(81,73,128);fill-rule:nonzero;"/>
                    <path d="M478.328,345.104C478.328,410.725 530.825,462.566 596.119,462.566C643.694,462.566 677.49,441.239 677.49,441.239C678.802,440.255 680.114,438.614 680.114,435.989L680.114,351.994C680.114,348.713 677.49,345.76 674.208,345.76L611.212,345.76C607.603,345.76 604.978,348.385 604.978,351.994L604.978,377.914C604.978,381.195 607.603,383.82 611.212,383.82L637.46,383.82L637.46,411.709C630.898,414.334 616.79,419.912 598.416,419.912C557.074,419.912 524.591,385.461 524.591,344.775C524.591,303.762 557.074,268.654 598.088,268.654C616.133,268.654 633.523,275.217 647.632,287.685C650.585,290.31 653.538,290.31 656.163,287.685L676.505,266.358C679.13,263.733 678.802,259.796 676.177,257.171C653.866,238.14 625.649,226.657 596.119,226.657C530.825,226.657 478.328,279.482 478.328,345.104Z" style="fill:rgb(81,73,128);fill-rule:nonzero;"/>
                    <path d="M739.83,372.665C739.83,422.537 779.531,462.894 831.044,462.894C882.885,462.894 922.586,422.537 922.586,372.665L922.586,236.172C922.586,232.891 919.633,229.938 916.352,229.938L885.182,229.938C881.572,229.938 878.948,232.891 878.948,236.172L878.948,370.696C878.948,398.257 859.589,420.24 831.044,420.24C802.498,420.24 783.468,398.257 783.468,370.368L783.468,236.172C783.468,232.891 780.843,229.938 777.234,229.938L746.064,229.938C742.783,229.938 739.83,232.891 739.83,236.172L739.83,372.665Z" style="fill:rgb(81,73,128);fill-rule:nonzero;"/>
                    <path d="M993.785,453.379C993.785,456.66 996.738,459.613 1000.02,459.613L1030.53,459.613C1033.81,459.613 1036.77,456.66 1036.77,453.379L1036.77,236.172C1036.77,232.891 1033.81,229.938 1030.53,229.938L1000.02,229.938C996.738,229.938 993.785,232.891 993.785,236.172L993.785,453.379Z" style="fill:rgb(81,73,128);fill-rule:nonzero;"/>
                    <path d="M1111.25,453.379C1111.25,456.66 1114.2,459.613 1117.48,459.613L1147.34,459.613C1150.95,459.613 1153.57,456.66 1153.57,453.379L1153.57,312.293L1153.9,312.293L1291.05,462.894L1298.92,462.894C1302.21,462.894 1305.16,460.269 1305.16,456.988L1305.16,236.172C1305.16,232.891 1302.21,229.938 1298.92,229.938L1268.74,229.938C1265.13,229.938 1262.51,232.891 1262.51,236.172L1262.51,371.68L1262.18,371.68L1125.68,226.657L1117.48,226.657C1114.2,226.657 1111.25,229.282 1111.25,232.563L1111.25,453.379Z" style="fill:rgb(81,73,128);fill-rule:nonzero;"/>
                    <path d="M1358.97,435.989C1358.97,450.754 1371.11,462.894 1385.87,462.894C1400.64,462.894 1413.11,450.754 1413.11,435.989C1413.11,421.224 1400.64,408.756 1385.87,408.756C1371.11,408.756 1358.97,421.224 1358.97,435.989Z" style="fill:rgb(81,73,128);fill-rule:nonzero;"/>
                    <path d="M1446.25,438.942C1451.82,445.833 1467.57,462.894 1496.12,462.894C1534.51,462.894 1565.02,436.646 1565.02,391.039L1565.02,236.172C1565.02,232.891 1562.39,229.938 1558.79,229.938L1527.94,229.938C1524.34,229.938 1521.71,232.891 1521.71,236.172L1521.71,391.039C1521.71,413.678 1508.26,424.177 1495.46,424.177C1484.63,424.177 1478.07,418.272 1473.81,413.678C1470.85,410.725 1467.57,410.069 1463.96,413.35L1446.9,430.74C1444.93,433.036 1444.61,436.317 1446.25,438.942Z" style="fill:rgb(81,73,128);fill-rule:nonzero;"/>
                    <path d="M1621.45,437.302C1628.02,443.536 1652.3,462.894 1693.64,462.894C1739.9,462.894 1769.1,431.724 1769.1,397.929C1769.1,355.603 1732.36,336.573 1700.53,323.777C1673.95,312.949 1661.81,302.45 1661.81,287.029C1661.81,276.529 1671.98,264.061 1690.68,264.061C1708.73,264.061 1733.67,280.466 1736.29,282.107C1740.23,284.732 1745.15,282.107 1747.78,278.17L1760.24,259.467C1762.54,256.186 1761.56,250.609 1758.28,248.64C1751.71,243.718 1726.12,226.657 1692.65,226.657C1640.49,226.657 1618.83,260.452 1618.83,289.653C1618.83,328.37 1649.67,348.057 1680.51,360.525C1708.08,371.68 1722.18,383.164 1722.18,399.897C1722.18,414.006 1709.39,425.162 1692.33,425.162C1671,425.162 1644.42,405.803 1642.78,404.819C1639.83,402.522 1634.25,402.522 1631.63,407.116L1619.81,427.459C1616.86,432.708 1618.5,434.349 1621.45,437.302Z" style="fill:rgb(81,73,128);fill-rule:nonzero;"/>
                </g>
            </g>
        </g>
    </g>
</svg>
