<?xml version="1.0" encoding="UTF-8" standalone="no"?>
<!DOCTYPE svg PUBLIC "-//W3C//DTD SVG 1.1//EN" "http://www.w3.org/Graphics/SVG/1.1/DTD/svg11.dtd">
<svg width="100%" height="100%" viewBox="0 0 290 160" version="1.1" xmlns="http://www.w3.org/2000/svg" xmlns:xlink="http://www.w3.org/1999/xlink" xml:space="preserve" style="fill-rule:evenodd;clip-rule:evenodd;stroke-linejoin:round;stroke-miterlimit:1.41421;">
    <g>
        <g opacity="0.2">
            <g transform="matrix(0.130757,1.15335e-17,1.15335e-17,0.0836678,-3414.37,-212.423)">
                <g transform="matrix(9.98077,-1.37584e-15,-1.37584e-15,15.5981,25774,2538.89)">
                    <path d="M124.551,46.082L124.551,46.082L165.449,46.082L165.449,46.082L170.55,46.082L170.55,93.114C162.033,84.597 153.516,76.081 145,67.564L119.45,93.114L119.45,46.082L124.551,46.082Z" style="fill:white;"/>
                </g>
                <g transform="matrix(9.98077,-1.37584e-15,-1.37584e-15,15.5981,25774,2538.89)">
                    <path d="M145,0C156.326,0 165.521,9.195 165.521,20.521C165.521,31.847 156.326,41.042 145,41.042C133.674,41.042 124.479,31.847 124.479,20.521C124.479,9.195 133.674,0 145,0ZM137.332,20.521L145,28.19L152.668,20.521L137.332,20.521Z" style="fill:white;"/>
                </g>
            </g>
            <g transform="matrix(0.108603,9.09039e-32,-1.2326e-31,0.108603,15.3558,106.842)">
                <text x="518.512px" y="459.613px" style="font-family:'BrandonGrotesque-Bold', 'Brandon Grotesque', sans-serif;font-weight:450;font-size:220.988px;fill:white;">P<tspan x="658.176px 796.956px 976.619px 1142.8px 1310.53px 1388.54px " y="459.613px 459.613px 459.613px 459.613px 459.613px 459.613px ">ENGUIN</tspan></text>
                <text x="1566.66px" y="459.613px" style="font-family:'BrandonGrotesque-Bold', 'Brandon Grotesque', sans-serif;font-weight:450;font-size:220.988px;fill:white;">.</text>
                <text x="1646.65px" y="459.613px" style="font-family:'BrandonGrotesque-Bold', 'Brandon Grotesque', sans-serif;font-weight:450;font-size:220.988px;fill:white;">J<tspan x="1747.87px " y="459.613px ">S</tspan></text>
            </g>
        </g>
    </g>
</svg>
